<mxfile host="app.diagrams.net" modified="2022-02-07T12:04:08.405Z" agent="5.0 (X11)" etag="r4iSzcBLO0_lMZbyz6NT" version="16.5.2" type="github">
  <diagram id="4_nmUq1pFZtlGs80qJmV" name="Page-1">
    <mxGraphModel dx="653" dy="910" grid="1" gridSize="10" guides="1" tooltips="1" connect="1" arrows="1" fold="1" page="1" pageScale="1" pageWidth="850" pageHeight="1100" math="0" shadow="0">
      <root>
        <mxCell id="0" />
        <mxCell id="1" parent="0" />
        <mxCell id="OaylinPc7qBIeSaOdyYc-9" style="edgeStyle=orthogonalEdgeStyle;rounded=0;orthogonalLoop=1;jettySize=auto;html=1;exitX=0;exitY=1;exitDx=0;exitDy=0;" parent="1" source="OaylinPc7qBIeSaOdyYc-1" target="OaylinPc7qBIeSaOdyYc-2" edge="1">
          <mxGeometry relative="1" as="geometry" />
        </mxCell>
        <mxCell id="OaylinPc7qBIeSaOdyYc-10" style="edgeStyle=orthogonalEdgeStyle;rounded=0;orthogonalLoop=1;jettySize=auto;html=1;exitX=1;exitY=1;exitDx=0;exitDy=0;" parent="1" source="OaylinPc7qBIeSaOdyYc-1" target="OaylinPc7qBIeSaOdyYc-4" edge="1">
          <mxGeometry relative="1" as="geometry" />
        </mxCell>
        <mxCell id="OaylinPc7qBIeSaOdyYc-1" value="Cuerpo" style="ellipse;whiteSpace=wrap;html=1;fillColor=#9933FF;" parent="1" vertex="1">
          <mxGeometry x="130" y="170" width="120" height="90" as="geometry" />
        </mxCell>
        <mxCell id="OaylinPc7qBIeSaOdyYc-11" style="edgeStyle=orthogonalEdgeStyle;rounded=0;orthogonalLoop=1;jettySize=auto;html=1;exitX=0.5;exitY=1;exitDx=0;exitDy=0;" parent="1" source="OaylinPc7qBIeSaOdyYc-2" target="OaylinPc7qBIeSaOdyYc-5" edge="1">
          <mxGeometry relative="1" as="geometry" />
        </mxCell>
        <mxCell id="OaylinPc7qBIeSaOdyYc-2" value="E[4,4,1]" style="ellipse;whiteSpace=wrap;html=1;fillColor=#B9E0A5;" parent="1" vertex="1">
          <mxGeometry x="30" y="310" width="120" height="80" as="geometry" />
        </mxCell>
        <mxCell id="6w8MThN1__oIE-e5tfib-7" style="edgeStyle=orthogonalEdgeStyle;rounded=0;orthogonalLoop=1;jettySize=auto;html=1;exitX=0.5;exitY=1;exitDx=0;exitDy=0;" edge="1" parent="1" source="OaylinPc7qBIeSaOdyYc-4" target="6w8MThN1__oIE-e5tfib-5">
          <mxGeometry relative="1" as="geometry" />
        </mxCell>
        <mxCell id="OaylinPc7qBIeSaOdyYc-4" value="E[4,1,1]" style="ellipse;whiteSpace=wrap;html=1;fillColor=#B9E0A5;" parent="1" vertex="1">
          <mxGeometry x="220" y="310" width="120" height="80" as="geometry" />
        </mxCell>
        <mxCell id="6w8MThN1__oIE-e5tfib-6" style="edgeStyle=orthogonalEdgeStyle;rounded=0;orthogonalLoop=1;jettySize=auto;html=1;exitX=0.5;exitY=1;exitDx=0;exitDy=0;" edge="1" parent="1" source="OaylinPc7qBIeSaOdyYc-5" target="6w8MThN1__oIE-e5tfib-4">
          <mxGeometry relative="1" as="geometry" />
        </mxCell>
        <mxCell id="OaylinPc7qBIeSaOdyYc-5" value="T[0,25,0)" style="ellipse;whiteSpace=wrap;html=1;fillColor=#B9E0A5;" parent="1" vertex="1">
          <mxGeometry x="30" y="460" width="120" height="80" as="geometry" />
        </mxCell>
        <mxCell id="6w8MThN1__oIE-e5tfib-1" value="Cubo" style="ellipse;whiteSpace=wrap;html=1;fillColor=#8CFFF7;" vertex="1" parent="1">
          <mxGeometry x="140" y="730" width="120" height="80" as="geometry" />
        </mxCell>
        <mxCell id="6w8MThN1__oIE-e5tfib-8" style="edgeStyle=orthogonalEdgeStyle;rounded=0;orthogonalLoop=1;jettySize=auto;html=1;exitX=0.5;exitY=1;exitDx=0;exitDy=0;" edge="1" parent="1" source="6w8MThN1__oIE-e5tfib-4" target="6w8MThN1__oIE-e5tfib-1">
          <mxGeometry relative="1" as="geometry" />
        </mxCell>
        <mxCell id="6w8MThN1__oIE-e5tfib-4" value="T[0,12&#39;5,0]" style="ellipse;whiteSpace=wrap;html=1;fillColor=#B9E0A5;" vertex="1" parent="1">
          <mxGeometry x="30" y="600" width="120" height="80" as="geometry" />
        </mxCell>
        <mxCell id="6w8MThN1__oIE-e5tfib-9" style="edgeStyle=orthogonalEdgeStyle;rounded=0;orthogonalLoop=1;jettySize=auto;html=1;exitX=0.5;exitY=1;exitDx=0;exitDy=0;" edge="1" parent="1" source="6w8MThN1__oIE-e5tfib-5">
          <mxGeometry relative="1" as="geometry">
            <mxPoint x="200" y="730" as="targetPoint" />
          </mxGeometry>
        </mxCell>
        <mxCell id="6w8MThN1__oIE-e5tfib-5" value="T[0,12&#39;5,0]" style="ellipse;whiteSpace=wrap;html=1;fillColor=#B9E0A5;" vertex="1" parent="1">
          <mxGeometry x="220" y="600" width="120" height="80" as="geometry" />
        </mxCell>
      </root>
    </mxGraphModel>
  </diagram>
</mxfile>
